<svg width="152.934326" height="34.166016" viewBox="0 0 152.934 34.166" fill="none" xmlns="http://www.w3.org/2000/svg" xmlns:xlink="http://www.w3.org/1999/xlink">
	<desc>
			Created with Pixso.
	</desc>
	<defs/>
	<path id="Pathway" d="M73.54 6.94Q71.94 5.98 69.76 5.98Q67.86 5.98 66.33 6.73Q64.98 7.38 64.14 8.44Q64.02 8.58 63.91 8.74L63.91 0L58.1 0L58.1 25.15L63.91 25.15L63.91 14.85Q63.91 13.05 64.8 12Q64.85 11.95 64.9 11.9Q65.17 11.6 65.5 11.39Q66.35 10.84 67.56 10.84Q68.74 10.84 69.58 11.38Q69.92 11.6 70.2 11.9Q70.25 11.95 70.3 12Q71.19 13.05 71.19 14.85L71.19 25.15L76.97 25.15L76.97 14.07Q76.97 10.53 75.23 8.42Q75.12 8.27 74.99 8.14Q74.34 7.42 73.54 6.94ZM17.7 11.75Q18.18 10.45 18.18 8.97Q18.18 6.9 17.34 5.27Q17.27 5.13 17.19 4.99Q16.98 4.62 16.73 4.28Q15.79 3.05 14.24 2.28Q12.27 1.29 9.42 1.29L0 1.29L0 25.15L5.81 25.15L5.81 16.59L9.42 16.59Q12.34 16.59 14.31 15.53Q16.06 14.6 17 13.14Q17.12 12.95 17.23 12.76Q17.5 12.27 17.7 11.75ZM54.87 25.15L54.87 20.22L52.8 20.22Q51.84 20.22 51.44 19.85Q51.03 19.48 51.03 18.63L51.03 11.01L54.84 11.01L54.84 6.18L51.03 6.18L51.03 1.56L45.22 1.56L45.22 6.18L42.9 6.18L42.9 11.01L45.22 11.01L45.22 18.56Q45.22 22.01 46.94 23.57Q46.96 23.59 46.99 23.61Q48.75 25.15 51.91 25.15L54.87 25.15ZM21.16 10.5Q20.06 12.71 20.06 15.63Q20.06 18.56 21.16 20.79Q22.07 22.63 23.53 23.78Q23.84 24.02 24.17 24.23Q24.98 24.74 25.87 25.03Q27.06 25.43 28.38 25.43Q30.39 25.43 31.9 24.62Q33.17 23.93 33.97 22.88Q34.13 22.68 34.27 22.47L34.27 25.15L40.08 25.15L40.08 6.18L34.27 6.18L34.27 8.87Q34.15 8.68 34.02 8.5Q33.24 7.42 31.94 6.73Q30.42 5.91 28.42 5.91Q26.93 5.91 25.62 6.39Q24.87 6.67 24.17 7.1Q23.84 7.31 23.53 7.54Q22.07 8.67 21.16 10.5ZM110.41 10.5Q109.31 12.71 109.31 15.63Q109.31 18.56 110.41 20.79Q111.32 22.63 112.78 23.78Q113.09 24.02 113.42 24.23Q114.23 24.74 115.12 25.03Q116.31 25.43 117.63 25.43Q119.64 25.43 121.15 24.62Q122.42 23.93 123.22 22.88Q123.38 22.68 123.52 22.47L123.52 25.15L129.33 25.15L129.33 6.18L123.52 6.18L123.52 8.87Q123.4 8.68 123.27 8.5Q122.49 7.42 121.19 6.73Q119.68 5.91 117.67 5.91Q116.18 5.91 114.87 6.39Q114.12 6.67 113.42 7.1Q113.09 7.31 112.78 7.54Q111.32 8.67 110.41 10.5ZM11.45 11.18Q10.64 11.96 8.97 11.96L5.81 11.96L5.81 5.98L8.97 5.98Q10.64 5.98 11.45 6.76Q11.58 6.88 11.69 7.02Q12.27 7.76 12.27 8.97Q12.27 10.17 11.69 10.92Q11.58 11.06 11.45 11.18ZM103.11 25.15L108.25 6.18L102.77 6.18L100.13 19.68L96.9 6.18L90.74 6.18L87.54 19.75L84.86 6.18L79.04 6.18L84.21 25.15L90.6 25.15L93.7 12.84L96.69 25.15L103.11 25.15ZM141.03 34.16L152.93 6.18L146.64 6.18L142.29 18.05L137.9 6.18L131.41 6.18L139.13 24.51L134.77 34.16L141.03 34.16ZM33.36 12.6Q34.27 13.79 34.27 15.67Q34.27 17.54 33.37 18.74Q33.22 18.93 33.06 19.1Q32.45 19.73 31.71 20.05Q30.98 20.36 30.12 20.36Q29.28 20.36 28.57 20.06Q27.8 19.75 27.17 19.09Q27.01 18.92 26.87 18.73Q25.97 17.52 25.97 15.63Q25.97 13.73 26.89 12.54Q27.02 12.38 27.17 12.22Q27.78 11.6 28.52 11.29Q29.25 10.98 30.12 10.98Q30.97 10.98 31.7 11.28Q32.44 11.6 33.06 12.24Q33.22 12.41 33.36 12.6ZM122.61 12.6Q123.52 13.79 123.52 15.67Q123.52 17.54 122.62 18.74Q122.47 18.93 122.31 19.1Q121.7 19.73 120.96 20.05Q120.23 20.36 119.37 20.36Q118.53 20.36 117.82 20.06Q117.05 19.75 116.42 19.09Q116.26 18.92 116.12 18.73Q115.22 17.52 115.22 15.63Q115.22 13.73 116.14 12.54Q116.27 12.38 116.42 12.22Q117.03 11.6 117.77 11.29Q118.51 10.98 119.37 10.98Q120.22 10.98 120.95 11.28Q121.7 11.6 122.31 12.24Q122.47 12.41 122.61 12.6Z" fill="#35323E" fill-opacity="1.000000" fill-rule="evenodd"/>
</svg>
